<mxfile host="app.diagrams.net" agent="Mozilla/5.0 (Windows NT 10.0; Win64; x64; rv:132.0) Gecko/20100101 Firefox/132.0" version="24.8.4" pages="2">
  <diagram name="flowchart-benkyou" id="HqVOhBxUSfoMC-Bsnp2I">
    <mxGraphModel dx="794" dy="414" grid="1" gridSize="10" guides="1" tooltips="1" connect="1" arrows="1" fold="1" page="1" pageScale="1" pageWidth="1700" pageHeight="1200" math="0" shadow="0">
      <root>
        <mxCell id="0" />
        <mxCell id="1" parent="0" />
        <mxCell id="OgZTzhqOuTUDDdfzsmMP-20" value="" style="edgeStyle=orthogonalEdgeStyle;rounded=0;orthogonalLoop=1;jettySize=auto;html=1;entryX=0.5;entryY=0;entryDx=0;entryDy=0;" parent="1" source="OgZTzhqOuTUDDdfzsmMP-3" target="OgZTzhqOuTUDDdfzsmMP-15" edge="1">
          <mxGeometry relative="1" as="geometry">
            <mxPoint x="420" y="240" as="targetPoint" />
          </mxGeometry>
        </mxCell>
        <mxCell id="OgZTzhqOuTUDDdfzsmMP-3" value="" style="strokeWidth=2;html=1;shape=mxgraph.flowchart.terminator;whiteSpace=wrap;" parent="1" vertex="1">
          <mxGeometry x="360" y="147" width="120" height="60" as="geometry" />
        </mxCell>
        <mxCell id="OgZTzhqOuTUDDdfzsmMP-4" value="START" style="text;strokeColor=none;align=center;fillColor=none;html=1;verticalAlign=middle;whiteSpace=wrap;rounded=0;" parent="1" vertex="1">
          <mxGeometry x="390" y="162" width="60" height="30" as="geometry" />
        </mxCell>
        <mxCell id="OgZTzhqOuTUDDdfzsmMP-10" value="" style="rounded=1;whiteSpace=wrap;html=1;absoluteArcSize=1;arcSize=14;strokeWidth=2;" parent="1" vertex="1">
          <mxGeometry x="360" y="431" width="120" height="40" as="geometry" />
        </mxCell>
        <mxCell id="OgZTzhqOuTUDDdfzsmMP-11" value="Register" style="text;strokeColor=none;align=center;fillColor=none;html=1;verticalAlign=middle;whiteSpace=wrap;rounded=0;" parent="1" vertex="1">
          <mxGeometry x="390" y="436" width="60" height="30" as="geometry" />
        </mxCell>
        <mxCell id="OgZTzhqOuTUDDdfzsmMP-25" value="" style="edgeStyle=orthogonalEdgeStyle;rounded=0;orthogonalLoop=1;jettySize=auto;html=1;" parent="1" source="OgZTzhqOuTUDDdfzsmMP-15" edge="1">
          <mxGeometry relative="1" as="geometry">
            <mxPoint x="420" y="430" as="targetPoint" />
          </mxGeometry>
        </mxCell>
        <mxCell id="OgZTzhqOuTUDDdfzsmMP-15" value="" style="rhombus;whiteSpace=wrap;html=1;strokeWidth=2;" parent="1" vertex="1">
          <mxGeometry x="370" y="250" width="100" height="100" as="geometry" />
        </mxCell>
        <mxCell id="OgZTzhqOuTUDDdfzsmMP-22" value="" style="edgeStyle=orthogonalEdgeStyle;rounded=0;orthogonalLoop=1;jettySize=auto;html=1;" parent="1" edge="1">
          <mxGeometry relative="1" as="geometry">
            <mxPoint x="467" y="299" as="sourcePoint" />
            <mxPoint x="530" y="299" as="targetPoint" />
          </mxGeometry>
        </mxCell>
        <mxCell id="OgZTzhqOuTUDDdfzsmMP-16" value="Sudah punya akun?" style="text;strokeColor=none;align=center;fillColor=none;html=1;verticalAlign=middle;whiteSpace=wrap;rounded=0;" parent="1" vertex="1">
          <mxGeometry x="380" y="289" width="80" height="30" as="geometry" />
        </mxCell>
        <mxCell id="OgZTzhqOuTUDDdfzsmMP-33" value="" style="edgeStyle=orthogonalEdgeStyle;rounded=0;orthogonalLoop=1;jettySize=auto;html=1;entryX=0;entryY=0.5;entryDx=0;entryDy=0;" parent="1" source="OgZTzhqOuTUDDdfzsmMP-21" target="ksIbeJpFSlE6ESBMgPTt-1" edge="1">
          <mxGeometry relative="1" as="geometry">
            <mxPoint x="740" y="299" as="targetPoint" />
          </mxGeometry>
        </mxCell>
        <mxCell id="OgZTzhqOuTUDDdfzsmMP-21" value="" style="rounded=1;whiteSpace=wrap;html=1;" parent="1" vertex="1">
          <mxGeometry x="531" y="281" width="120" height="37" as="geometry" />
        </mxCell>
        <mxCell id="OgZTzhqOuTUDDdfzsmMP-23" value="Login" style="text;strokeColor=none;align=center;fillColor=none;html=1;verticalAlign=middle;whiteSpace=wrap;rounded=0;" parent="1" vertex="1">
          <mxGeometry x="560" y="285" width="60" height="30" as="geometry" />
        </mxCell>
        <mxCell id="OgZTzhqOuTUDDdfzsmMP-24" value="&lt;div&gt;Yes&lt;/div&gt;" style="text;strokeColor=none;align=center;fillColor=none;html=1;verticalAlign=middle;whiteSpace=wrap;rounded=0;" parent="1" vertex="1">
          <mxGeometry x="457" y="270" width="80" height="30" as="geometry" />
        </mxCell>
        <mxCell id="OgZTzhqOuTUDDdfzsmMP-26" value="No" style="text;strokeColor=none;align=center;fillColor=none;html=1;verticalAlign=middle;whiteSpace=wrap;rounded=0;rotation=90;" parent="1" vertex="1">
          <mxGeometry x="391" y="366" width="80" height="30" as="geometry" />
        </mxCell>
        <mxCell id="OgZTzhqOuTUDDdfzsmMP-30" value="" style="endArrow=classic;html=1;rounded=0;entryX=0;entryY=0.5;entryDx=0;entryDy=0;" parent="1" target="OgZTzhqOuTUDDdfzsmMP-15" edge="1">
          <mxGeometry width="50" height="50" relative="1" as="geometry">
            <mxPoint x="360" y="450" as="sourcePoint" />
            <mxPoint x="290" y="390" as="targetPoint" />
            <Array as="points">
              <mxPoint x="320" y="450" />
              <mxPoint x="320" y="300" />
            </Array>
          </mxGeometry>
        </mxCell>
        <mxCell id="OgZTzhqOuTUDDdfzsmMP-31" value="&lt;div&gt;Buat AKun&lt;/div&gt;" style="text;strokeColor=none;align=center;fillColor=none;html=1;verticalAlign=middle;whiteSpace=wrap;rounded=0;rotation=270;" parent="1" vertex="1">
          <mxGeometry x="270" y="380" width="80" height="30" as="geometry" />
        </mxCell>
        <mxCell id="OgZTzhqOuTUDDdfzsmMP-40" value="" style="edgeStyle=orthogonalEdgeStyle;rounded=0;orthogonalLoop=1;jettySize=auto;html=1;" parent="1" source="OgZTzhqOuTUDDdfzsmMP-34" target="OgZTzhqOuTUDDdfzsmMP-39" edge="1">
          <mxGeometry relative="1" as="geometry" />
        </mxCell>
        <mxCell id="OgZTzhqOuTUDDdfzsmMP-43" value="" style="edgeStyle=orthogonalEdgeStyle;rounded=0;orthogonalLoop=1;jettySize=auto;html=1;entryX=0.5;entryY=0;entryDx=0;entryDy=0;" parent="1" source="OgZTzhqOuTUDDdfzsmMP-34" target="ksIbeJpFSlE6ESBMgPTt-12" edge="1">
          <mxGeometry relative="1" as="geometry" />
        </mxCell>
        <mxCell id="OgZTzhqOuTUDDdfzsmMP-34" value="" style="rhombus;whiteSpace=wrap;html=1;strokeWidth=2;" parent="1" vertex="1">
          <mxGeometry x="961" y="250" width="100" height="100" as="geometry" />
        </mxCell>
        <mxCell id="OgZTzhqOuTUDDdfzsmMP-35" value="If Pengajar" style="text;strokeColor=none;align=center;fillColor=none;html=1;verticalAlign=middle;whiteSpace=wrap;rounded=0;" parent="1" vertex="1">
          <mxGeometry x="971" y="287" width="80" height="30" as="geometry" />
        </mxCell>
        <mxCell id="OgZTzhqOuTUDDdfzsmMP-36" value="" style="rounded=1;whiteSpace=wrap;html=1;strokeWidth=2;" parent="1" vertex="1">
          <mxGeometry x="951" y="137" width="120" height="40" as="geometry" />
        </mxCell>
        <mxCell id="OgZTzhqOuTUDDdfzsmMP-64" value="" style="edgeStyle=orthogonalEdgeStyle;rounded=0;orthogonalLoop=1;jettySize=auto;html=1;" parent="1" target="OgZTzhqOuTUDDdfzsmMP-63" edge="1">
          <mxGeometry relative="1" as="geometry">
            <mxPoint x="1071" y="158" as="sourcePoint" />
          </mxGeometry>
        </mxCell>
        <mxCell id="OgZTzhqOuTUDDdfzsmMP-38" value="Akses dashboard admin" style="text;strokeColor=none;align=center;fillColor=none;html=1;verticalAlign=middle;whiteSpace=wrap;rounded=0;" parent="1" vertex="1">
          <mxGeometry x="962" y="143" width="100" height="30" as="geometry" />
        </mxCell>
        <mxCell id="OgZTzhqOuTUDDdfzsmMP-39" value="" style="rounded=1;whiteSpace=wrap;html=1;strokeWidth=2;" parent="1" vertex="1">
          <mxGeometry x="1131" y="280" width="120" height="40" as="geometry" />
        </mxCell>
        <mxCell id="OgZTzhqOuTUDDdfzsmMP-50" value="" style="edgeStyle=orthogonalEdgeStyle;rounded=0;orthogonalLoop=1;jettySize=auto;html=1;exitX=1.024;exitY=0.568;exitDx=0;exitDy=0;exitPerimeter=0;entryX=0.5;entryY=0;entryDx=0;entryDy=0;" parent="1" source="OgZTzhqOuTUDDdfzsmMP-39" target="ksIbeJpFSlE6ESBMgPTt-9" edge="1">
          <mxGeometry relative="1" as="geometry" />
        </mxCell>
        <mxCell id="OgZTzhqOuTUDDdfzsmMP-41" value="Akses dashboard pengajar" style="text;strokeColor=none;align=center;fillColor=none;html=1;verticalAlign=middle;whiteSpace=wrap;rounded=0;" parent="1" vertex="1">
          <mxGeometry x="1141" y="287" width="100" height="30" as="geometry" />
        </mxCell>
        <mxCell id="OgZTzhqOuTUDDdfzsmMP-42" value="" style="rounded=1;whiteSpace=wrap;html=1;strokeWidth=2;" parent="1" vertex="1">
          <mxGeometry x="951" y="467" width="120" height="40" as="geometry" />
        </mxCell>
        <mxCell id="OgZTzhqOuTUDDdfzsmMP-77" value="" style="edgeStyle=orthogonalEdgeStyle;rounded=0;orthogonalLoop=1;jettySize=auto;html=1;entryX=0.5;entryY=0;entryDx=0;entryDy=0;" parent="1" source="OgZTzhqOuTUDDdfzsmMP-45" target="OgZTzhqOuTUDDdfzsmMP-81" edge="1">
          <mxGeometry relative="1" as="geometry">
            <mxPoint x="1011" y="552" as="targetPoint" />
          </mxGeometry>
        </mxCell>
        <mxCell id="OgZTzhqOuTUDDdfzsmMP-45" value="Akses dashboard murid" style="text;strokeColor=none;align=center;fillColor=none;html=1;verticalAlign=middle;whiteSpace=wrap;rounded=0;" parent="1" vertex="1">
          <mxGeometry x="961" y="472" width="100" height="30" as="geometry" />
        </mxCell>
        <mxCell id="OgZTzhqOuTUDDdfzsmMP-46" value="Yes" style="text;strokeColor=none;align=center;fillColor=none;html=1;verticalAlign=middle;whiteSpace=wrap;rounded=0;" parent="1" vertex="1">
          <mxGeometry x="1051" y="270" width="80" height="30" as="geometry" />
        </mxCell>
        <mxCell id="OgZTzhqOuTUDDdfzsmMP-47" value="No" style="text;strokeColor=none;align=center;fillColor=none;html=1;verticalAlign=middle;whiteSpace=wrap;rounded=0;rotation=90;" parent="1" vertex="1">
          <mxGeometry x="986" y="355" width="80" height="30" as="geometry" />
        </mxCell>
        <mxCell id="OgZTzhqOuTUDDdfzsmMP-48" value="Yes" style="text;strokeColor=none;align=center;fillColor=none;html=1;verticalAlign=middle;whiteSpace=wrap;rounded=0;rotation=270;" parent="1" vertex="1">
          <mxGeometry x="770" y="192" width="80" height="30" as="geometry" />
        </mxCell>
        <mxCell id="OgZTzhqOuTUDDdfzsmMP-49" value="" style="rounded=1;whiteSpace=wrap;html=1;" parent="1" vertex="1">
          <mxGeometry x="1311" y="441" width="120" height="40" as="geometry" />
        </mxCell>
        <mxCell id="OgZTzhqOuTUDDdfzsmMP-54" value="" style="edgeStyle=orthogonalEdgeStyle;rounded=0;orthogonalLoop=1;jettySize=auto;html=1;entryX=0.5;entryY=0;entryDx=0;entryDy=0;" parent="1" target="OgZTzhqOuTUDDdfzsmMP-52" edge="1">
          <mxGeometry relative="1" as="geometry">
            <mxPoint x="1371" y="483" as="sourcePoint" />
          </mxGeometry>
        </mxCell>
        <mxCell id="OgZTzhqOuTUDDdfzsmMP-51" value="Kelola Materi" style="text;strokeColor=none;align=center;fillColor=none;html=1;verticalAlign=middle;whiteSpace=wrap;rounded=0;" parent="1" vertex="1">
          <mxGeometry x="1321" y="447" width="100" height="30" as="geometry" />
        </mxCell>
        <mxCell id="OgZTzhqOuTUDDdfzsmMP-52" value="" style="rounded=1;whiteSpace=wrap;html=1;" parent="1" vertex="1">
          <mxGeometry x="1311" y="518" width="120" height="40" as="geometry" />
        </mxCell>
        <mxCell id="OgZTzhqOuTUDDdfzsmMP-56" value="" style="edgeStyle=orthogonalEdgeStyle;rounded=0;orthogonalLoop=1;jettySize=auto;html=1;entryX=0.503;entryY=0.045;entryDx=0;entryDy=0;entryPerimeter=0;" parent="1" target="OgZTzhqOuTUDDdfzsmMP-57" edge="1">
          <mxGeometry relative="1" as="geometry">
            <mxPoint x="1371.0256410256409" y="559" as="sourcePoint" />
            <mxPoint x="1371" y="624" as="targetPoint" />
          </mxGeometry>
        </mxCell>
        <mxCell id="OgZTzhqOuTUDDdfzsmMP-53" value="Kelola Quiz" style="text;strokeColor=none;align=center;fillColor=none;html=1;verticalAlign=middle;whiteSpace=wrap;rounded=0;" parent="1" vertex="1">
          <mxGeometry x="1321" y="524" width="100" height="30" as="geometry" />
        </mxCell>
        <mxCell id="OgZTzhqOuTUDDdfzsmMP-57" value="" style="rounded=1;whiteSpace=wrap;html=1;" parent="1" vertex="1">
          <mxGeometry x="1311" y="598" width="120" height="40" as="geometry" />
        </mxCell>
        <mxCell id="OgZTzhqOuTUDDdfzsmMP-61" value="" style="edgeStyle=orthogonalEdgeStyle;rounded=0;orthogonalLoop=1;jettySize=auto;html=1;entryX=0.5;entryY=0;entryDx=0;entryDy=0;" parent="1" target="OgZTzhqOuTUDDdfzsmMP-59" edge="1">
          <mxGeometry relative="1" as="geometry">
            <mxPoint x="1371" y="638" as="sourcePoint" />
          </mxGeometry>
        </mxCell>
        <mxCell id="OgZTzhqOuTUDDdfzsmMP-58" value="Lihat Hasil Quiz" style="text;strokeColor=none;align=center;fillColor=none;html=1;verticalAlign=middle;whiteSpace=wrap;rounded=0;" parent="1" vertex="1">
          <mxGeometry x="1321" y="603" width="100" height="30" as="geometry" />
        </mxCell>
        <mxCell id="OgZTzhqOuTUDDdfzsmMP-96" style="edgeStyle=orthogonalEdgeStyle;rounded=0;orthogonalLoop=1;jettySize=auto;html=1;exitX=0.5;exitY=1;exitDx=0;exitDy=0;entryX=1;entryY=0.5;entryDx=0;entryDy=0;" parent="1" source="OgZTzhqOuTUDDdfzsmMP-59" target="OgZTzhqOuTUDDdfzsmMP-93" edge="1">
          <mxGeometry relative="1" as="geometry" />
        </mxCell>
        <mxCell id="OgZTzhqOuTUDDdfzsmMP-59" value="" style="rounded=1;whiteSpace=wrap;html=1;" parent="1" vertex="1">
          <mxGeometry x="1311" y="683" width="120" height="40" as="geometry" />
        </mxCell>
        <mxCell id="OgZTzhqOuTUDDdfzsmMP-60" value="Kirim Pengumuman Untuk Murid" style="text;strokeColor=none;align=center;fillColor=none;html=1;verticalAlign=middle;whiteSpace=wrap;rounded=0;" parent="1" vertex="1">
          <mxGeometry x="1313" y="688" width="120" height="30" as="geometry" />
        </mxCell>
        <mxCell id="OgZTzhqOuTUDDdfzsmMP-68" value="" style="edgeStyle=orthogonalEdgeStyle;rounded=0;orthogonalLoop=1;jettySize=auto;html=1;entryX=0.5;entryY=0;entryDx=0;entryDy=0;" parent="1" source="OgZTzhqOuTUDDdfzsmMP-63" target="OgZTzhqOuTUDDdfzsmMP-66" edge="1">
          <mxGeometry relative="1" as="geometry" />
        </mxCell>
        <mxCell id="OgZTzhqOuTUDDdfzsmMP-63" value="" style="rounded=1;whiteSpace=wrap;html=1;" parent="1" vertex="1">
          <mxGeometry x="1519" y="361" width="120" height="40" as="geometry" />
        </mxCell>
        <mxCell id="OgZTzhqOuTUDDdfzsmMP-65" value="Kelola Semua Pengguna" style="text;strokeColor=none;align=center;fillColor=none;html=1;verticalAlign=middle;whiteSpace=wrap;rounded=0;" parent="1" vertex="1">
          <mxGeometry x="1528" y="366" width="100" height="30" as="geometry" />
        </mxCell>
        <mxCell id="OgZTzhqOuTUDDdfzsmMP-70" value="" style="edgeStyle=orthogonalEdgeStyle;rounded=0;orthogonalLoop=1;jettySize=auto;html=1;" parent="1" source="OgZTzhqOuTUDDdfzsmMP-66" target="OgZTzhqOuTUDDdfzsmMP-69" edge="1">
          <mxGeometry relative="1" as="geometry" />
        </mxCell>
        <mxCell id="OgZTzhqOuTUDDdfzsmMP-66" value="" style="rounded=1;whiteSpace=wrap;html=1;" parent="1" vertex="1">
          <mxGeometry x="1519" y="443" width="120" height="40" as="geometry" />
        </mxCell>
        <mxCell id="OgZTzhqOuTUDDdfzsmMP-67" value="Kelola Semua Materi" style="text;strokeColor=none;align=center;fillColor=none;html=1;verticalAlign=middle;whiteSpace=wrap;rounded=0;" parent="1" vertex="1">
          <mxGeometry x="1529" y="448" width="100" height="30" as="geometry" />
        </mxCell>
        <mxCell id="OgZTzhqOuTUDDdfzsmMP-75" value="" style="edgeStyle=orthogonalEdgeStyle;rounded=0;orthogonalLoop=1;jettySize=auto;html=1;entryX=0.52;entryY=0.026;entryDx=0;entryDy=0;entryPerimeter=0;" parent="1" source="OgZTzhqOuTUDDdfzsmMP-69" target="OgZTzhqOuTUDDdfzsmMP-72" edge="1">
          <mxGeometry relative="1" as="geometry" />
        </mxCell>
        <mxCell id="OgZTzhqOuTUDDdfzsmMP-69" value="" style="rounded=1;whiteSpace=wrap;html=1;" parent="1" vertex="1">
          <mxGeometry x="1519" y="522" width="120" height="40" as="geometry" />
        </mxCell>
        <mxCell id="OgZTzhqOuTUDDdfzsmMP-71" value="Lihat Statistik Global" style="text;strokeColor=none;align=center;fillColor=none;html=1;verticalAlign=middle;whiteSpace=wrap;rounded=0;" parent="1" vertex="1">
          <mxGeometry x="1530" y="527" width="100" height="30" as="geometry" />
        </mxCell>
        <mxCell id="OgZTzhqOuTUDDdfzsmMP-97" style="edgeStyle=orthogonalEdgeStyle;rounded=0;orthogonalLoop=1;jettySize=auto;html=1;exitX=0.5;exitY=1;exitDx=0;exitDy=0;entryX=1;entryY=0.5;entryDx=0;entryDy=0;" parent="1" source="OgZTzhqOuTUDDdfzsmMP-72" target="OgZTzhqOuTUDDdfzsmMP-93" edge="1">
          <mxGeometry relative="1" as="geometry" />
        </mxCell>
        <mxCell id="OgZTzhqOuTUDDdfzsmMP-72" value="" style="rounded=1;whiteSpace=wrap;html=1;" parent="1" vertex="1">
          <mxGeometry x="1517" y="600" width="120" height="50" as="geometry" />
        </mxCell>
        <mxCell id="OgZTzhqOuTUDDdfzsmMP-73" value="Kirim Pengumuman Untuk Semua Pengguna" style="text;strokeColor=none;align=center;fillColor=none;html=1;verticalAlign=middle;whiteSpace=wrap;rounded=0;" parent="1" vertex="1">
          <mxGeometry x="1519" y="609" width="120" height="30" as="geometry" />
        </mxCell>
        <mxCell id="OgZTzhqOuTUDDdfzsmMP-81" value="" style="rounded=1;whiteSpace=wrap;html=1;" parent="1" vertex="1">
          <mxGeometry x="951" y="547" width="120" height="40" as="geometry" />
        </mxCell>
        <mxCell id="OgZTzhqOuTUDDdfzsmMP-85" value="" style="edgeStyle=orthogonalEdgeStyle;rounded=0;orthogonalLoop=1;jettySize=auto;html=1;entryX=0.519;entryY=0.003;entryDx=0;entryDy=0;entryPerimeter=0;exitX=0.523;exitY=0.991;exitDx=0;exitDy=0;exitPerimeter=0;" parent="1" source="OgZTzhqOuTUDDdfzsmMP-81" target="OgZTzhqOuTUDDdfzsmMP-83" edge="1">
          <mxGeometry relative="1" as="geometry">
            <mxPoint x="1012" y="592" as="sourcePoint" />
          </mxGeometry>
        </mxCell>
        <mxCell id="OgZTzhqOuTUDDdfzsmMP-82" value="Pilih Materi" style="text;strokeColor=none;align=center;fillColor=none;html=1;verticalAlign=middle;whiteSpace=wrap;rounded=0;" parent="1" vertex="1">
          <mxGeometry x="952" y="552" width="120" height="30" as="geometry" />
        </mxCell>
        <mxCell id="OgZTzhqOuTUDDdfzsmMP-89" value="" style="edgeStyle=orthogonalEdgeStyle;rounded=0;orthogonalLoop=1;jettySize=auto;html=1;entryX=0.5;entryY=0;entryDx=0;entryDy=0;" parent="1" source="OgZTzhqOuTUDDdfzsmMP-83" target="OgZTzhqOuTUDDdfzsmMP-86" edge="1">
          <mxGeometry relative="1" as="geometry" />
        </mxCell>
        <mxCell id="OgZTzhqOuTUDDdfzsmMP-83" value="" style="rounded=1;whiteSpace=wrap;html=1;" parent="1" vertex="1">
          <mxGeometry x="951" y="629" width="120" height="40" as="geometry" />
        </mxCell>
        <mxCell id="OgZTzhqOuTUDDdfzsmMP-84" value="Kerjakan Quiz" style="text;strokeColor=none;align=center;fillColor=none;html=1;verticalAlign=middle;whiteSpace=wrap;rounded=0;" parent="1" vertex="1">
          <mxGeometry x="952" y="634" width="120" height="30" as="geometry" />
        </mxCell>
        <mxCell id="OgZTzhqOuTUDDdfzsmMP-92" style="edgeStyle=orthogonalEdgeStyle;rounded=0;orthogonalLoop=1;jettySize=auto;html=1;exitX=0.5;exitY=1;exitDx=0;exitDy=0;entryX=0.5;entryY=0;entryDx=0;entryDy=0;" parent="1" source="OgZTzhqOuTUDDdfzsmMP-86" target="OgZTzhqOuTUDDdfzsmMP-90" edge="1">
          <mxGeometry relative="1" as="geometry" />
        </mxCell>
        <mxCell id="OgZTzhqOuTUDDdfzsmMP-86" value="" style="rounded=1;whiteSpace=wrap;html=1;" parent="1" vertex="1">
          <mxGeometry x="951" y="706" width="120" height="40" as="geometry" />
        </mxCell>
        <mxCell id="OgZTzhqOuTUDDdfzsmMP-87" value="Lihat Hasil Quiz" style="text;strokeColor=none;align=center;fillColor=none;html=1;verticalAlign=middle;whiteSpace=wrap;rounded=0;" parent="1" vertex="1">
          <mxGeometry x="953" y="711" width="120" height="30" as="geometry" />
        </mxCell>
        <mxCell id="OgZTzhqOuTUDDdfzsmMP-95" style="edgeStyle=orthogonalEdgeStyle;rounded=0;orthogonalLoop=1;jettySize=auto;html=1;exitX=0.5;exitY=1;exitDx=0;exitDy=0;entryX=1;entryY=0.5;entryDx=0;entryDy=0;" parent="1" source="OgZTzhqOuTUDDdfzsmMP-90" target="OgZTzhqOuTUDDdfzsmMP-93" edge="1">
          <mxGeometry relative="1" as="geometry" />
        </mxCell>
        <mxCell id="OgZTzhqOuTUDDdfzsmMP-90" value="" style="rounded=1;whiteSpace=wrap;html=1;" parent="1" vertex="1">
          <mxGeometry x="951" y="787" width="120" height="40" as="geometry" />
        </mxCell>
        <mxCell id="OgZTzhqOuTUDDdfzsmMP-91" value="Ikut Diskusi" style="text;strokeColor=none;align=center;fillColor=none;html=1;verticalAlign=middle;whiteSpace=wrap;rounded=0;" parent="1" vertex="1">
          <mxGeometry x="953" y="792" width="120" height="30" as="geometry" />
        </mxCell>
        <mxCell id="OgZTzhqOuTUDDdfzsmMP-93" value="" style="rounded=1;whiteSpace=wrap;html=1;" parent="1" vertex="1">
          <mxGeometry x="525" y="829" width="120" height="37" as="geometry" />
        </mxCell>
        <mxCell id="OgZTzhqOuTUDDdfzsmMP-94" value="Logout" style="text;strokeColor=none;align=center;fillColor=none;html=1;verticalAlign=middle;whiteSpace=wrap;rounded=0;" parent="1" vertex="1">
          <mxGeometry x="554" y="833" width="60" height="30" as="geometry" />
        </mxCell>
        <mxCell id="OgZTzhqOuTUDDdfzsmMP-98" value="" style="strokeWidth=2;html=1;shape=mxgraph.flowchart.terminator;whiteSpace=wrap;" parent="1" vertex="1">
          <mxGeometry x="360" y="817.5" width="120" height="60" as="geometry" />
        </mxCell>
        <mxCell id="OgZTzhqOuTUDDdfzsmMP-99" value="END" style="text;strokeColor=none;align=center;fillColor=none;html=1;verticalAlign=middle;whiteSpace=wrap;rounded=0;" parent="1" vertex="1">
          <mxGeometry x="390" y="832.5" width="60" height="30" as="geometry" />
        </mxCell>
        <mxCell id="OgZTzhqOuTUDDdfzsmMP-100" style="edgeStyle=orthogonalEdgeStyle;rounded=0;orthogonalLoop=1;jettySize=auto;html=1;exitX=0;exitY=0.5;exitDx=0;exitDy=0;entryX=1;entryY=0.5;entryDx=0;entryDy=0;entryPerimeter=0;" parent="1" source="OgZTzhqOuTUDDdfzsmMP-93" target="OgZTzhqOuTUDDdfzsmMP-98" edge="1">
          <mxGeometry relative="1" as="geometry" />
        </mxCell>
        <mxCell id="ksIbeJpFSlE6ESBMgPTt-3" style="edgeStyle=orthogonalEdgeStyle;rounded=0;orthogonalLoop=1;jettySize=auto;html=1;exitX=1;exitY=0.5;exitDx=0;exitDy=0;entryX=0;entryY=0.5;entryDx=0;entryDy=0;" parent="1" source="ksIbeJpFSlE6ESBMgPTt-1" target="OgZTzhqOuTUDDdfzsmMP-34" edge="1">
          <mxGeometry relative="1" as="geometry" />
        </mxCell>
        <mxCell id="ksIbeJpFSlE6ESBMgPTt-4" style="edgeStyle=orthogonalEdgeStyle;rounded=0;orthogonalLoop=1;jettySize=auto;html=1;exitX=0.5;exitY=0;exitDx=0;exitDy=0;entryX=0;entryY=0.5;entryDx=0;entryDy=0;" parent="1" source="ksIbeJpFSlE6ESBMgPTt-1" target="OgZTzhqOuTUDDdfzsmMP-36" edge="1">
          <mxGeometry relative="1" as="geometry" />
        </mxCell>
        <mxCell id="ksIbeJpFSlE6ESBMgPTt-1" value="" style="rhombus;whiteSpace=wrap;html=1;strokeWidth=2;" parent="1" vertex="1">
          <mxGeometry x="770" y="249.5" width="100" height="100" as="geometry" />
        </mxCell>
        <mxCell id="ksIbeJpFSlE6ESBMgPTt-6" value="No" style="text;strokeColor=none;align=center;fillColor=none;html=1;verticalAlign=middle;whiteSpace=wrap;rounded=0;rotation=0;" parent="1" vertex="1">
          <mxGeometry x="872" y="273" width="80" height="30" as="geometry" />
        </mxCell>
        <mxCell id="ksIbeJpFSlE6ESBMgPTt-8" value="If Admin" style="text;strokeColor=none;align=center;fillColor=none;html=1;verticalAlign=middle;whiteSpace=wrap;rounded=0;" parent="1" vertex="1">
          <mxGeometry x="780" y="284.5" width="80" height="30" as="geometry" />
        </mxCell>
        <mxCell id="ksIbeJpFSlE6ESBMgPTt-9" value="" style="rounded=1;whiteSpace=wrap;html=1;" parent="1" vertex="1">
          <mxGeometry x="1311" y="361" width="120" height="40" as="geometry" />
        </mxCell>
        <mxCell id="ksIbeJpFSlE6ESBMgPTt-11" style="edgeStyle=orthogonalEdgeStyle;rounded=0;orthogonalLoop=1;jettySize=auto;html=1;entryX=0.5;entryY=0;entryDx=0;entryDy=0;" parent="1" target="OgZTzhqOuTUDDdfzsmMP-49" edge="1">
          <mxGeometry relative="1" as="geometry">
            <mxPoint x="1371" y="400" as="sourcePoint" />
          </mxGeometry>
        </mxCell>
        <mxCell id="ksIbeJpFSlE6ESBMgPTt-10" value="Buat Kelas Private" style="text;strokeColor=none;align=center;fillColor=none;html=1;verticalAlign=middle;whiteSpace=wrap;rounded=0;" parent="1" vertex="1">
          <mxGeometry x="1321" y="367" width="100" height="30" as="geometry" />
        </mxCell>
        <mxCell id="ksIbeJpFSlE6ESBMgPTt-12" value="" style="rounded=1;whiteSpace=wrap;html=1;fontStyle=1" parent="1" vertex="1">
          <mxGeometry x="952" y="397" width="120" height="40" as="geometry" />
        </mxCell>
        <mxCell id="ksIbeJpFSlE6ESBMgPTt-15" style="edgeStyle=orthogonalEdgeStyle;rounded=0;orthogonalLoop=1;jettySize=auto;html=1;exitX=0.5;exitY=1;exitDx=0;exitDy=0;entryX=0.523;entryY=0.03;entryDx=0;entryDy=0;entryPerimeter=0;" parent="1" source="ksIbeJpFSlE6ESBMgPTt-12" target="OgZTzhqOuTUDDdfzsmMP-42" edge="1">
          <mxGeometry relative="1" as="geometry" />
        </mxCell>
        <mxCell id="ksIbeJpFSlE6ESBMgPTt-16" value="Akses Kelas Private" style="text;strokeColor=none;align=center;fillColor=none;html=1;verticalAlign=middle;whiteSpace=wrap;rounded=0;" parent="1" vertex="1">
          <mxGeometry x="962" y="402" width="100" height="30" as="geometry" />
        </mxCell>
      </root>
    </mxGraphModel>
  </diagram>
  <diagram id="gOKZ53Veo--yTfwdNUq7" name="struktur-database-benkyou">
    <mxGraphModel dx="529" dy="276" grid="1" gridSize="10" guides="1" tooltips="1" connect="1" arrows="1" fold="1" page="1" pageScale="1" pageWidth="1700" pageHeight="1200" math="0" shadow="0">
      <root>
        <mxCell id="0" />
        <mxCell id="1" parent="0" />
        <mxCell id="fILGMM-Wce31LH-ySo0q-31" value="Collection users" style="shape=table;startSize=30;container=1;collapsible=1;childLayout=tableLayout;fixedRows=1;rowLines=0;fontStyle=1;align=center;resizeLast=1;html=1;" vertex="1" parent="1">
          <mxGeometry x="100" y="260" width="180" height="210" as="geometry">
            <mxRectangle x="100" y="260" width="70" height="30" as="alternateBounds" />
          </mxGeometry>
        </mxCell>
        <mxCell id="fILGMM-Wce31LH-ySo0q-32" value="" style="shape=tableRow;horizontal=0;startSize=0;swimlaneHead=0;swimlaneBody=0;fillColor=none;collapsible=0;dropTarget=0;points=[[0,0.5],[1,0.5]];portConstraint=eastwest;top=0;left=0;right=0;bottom=1;" vertex="1" parent="fILGMM-Wce31LH-ySo0q-31">
          <mxGeometry y="30" width="180" height="30" as="geometry" />
        </mxCell>
        <mxCell id="fILGMM-Wce31LH-ySo0q-33" value="PK" style="shape=partialRectangle;connectable=0;fillColor=none;top=0;left=0;bottom=0;right=0;fontStyle=1;overflow=hidden;whiteSpace=wrap;html=1;" vertex="1" parent="fILGMM-Wce31LH-ySo0q-32">
          <mxGeometry width="30" height="30" as="geometry">
            <mxRectangle width="30" height="30" as="alternateBounds" />
          </mxGeometry>
        </mxCell>
        <mxCell id="fILGMM-Wce31LH-ySo0q-34" value="_id" style="shape=partialRectangle;connectable=0;fillColor=none;top=0;left=0;bottom=0;right=0;align=left;spacingLeft=6;fontStyle=5;overflow=hidden;whiteSpace=wrap;html=1;" vertex="1" parent="fILGMM-Wce31LH-ySo0q-32">
          <mxGeometry x="30" width="150" height="30" as="geometry">
            <mxRectangle width="150" height="30" as="alternateBounds" />
          </mxGeometry>
        </mxCell>
        <mxCell id="fILGMM-Wce31LH-ySo0q-35" value="" style="shape=tableRow;horizontal=0;startSize=0;swimlaneHead=0;swimlaneBody=0;fillColor=none;collapsible=0;dropTarget=0;points=[[0,0.5],[1,0.5]];portConstraint=eastwest;top=0;left=0;right=0;bottom=0;" vertex="1" parent="fILGMM-Wce31LH-ySo0q-31">
          <mxGeometry y="60" width="180" height="30" as="geometry" />
        </mxCell>
        <mxCell id="fILGMM-Wce31LH-ySo0q-36" value="" style="shape=partialRectangle;connectable=0;fillColor=none;top=0;left=0;bottom=0;right=0;editable=1;overflow=hidden;whiteSpace=wrap;html=1;" vertex="1" parent="fILGMM-Wce31LH-ySo0q-35">
          <mxGeometry width="30" height="30" as="geometry">
            <mxRectangle width="30" height="30" as="alternateBounds" />
          </mxGeometry>
        </mxCell>
        <mxCell id="fILGMM-Wce31LH-ySo0q-37" value="username" style="shape=partialRectangle;connectable=0;fillColor=none;top=0;left=0;bottom=0;right=0;align=left;spacingLeft=6;overflow=hidden;whiteSpace=wrap;html=1;" vertex="1" parent="fILGMM-Wce31LH-ySo0q-35">
          <mxGeometry x="30" width="150" height="30" as="geometry">
            <mxRectangle width="150" height="30" as="alternateBounds" />
          </mxGeometry>
        </mxCell>
        <mxCell id="fILGMM-Wce31LH-ySo0q-38" value="" style="shape=tableRow;horizontal=0;startSize=0;swimlaneHead=0;swimlaneBody=0;fillColor=none;collapsible=0;dropTarget=0;points=[[0,0.5],[1,0.5]];portConstraint=eastwest;top=0;left=0;right=0;bottom=0;" vertex="1" parent="fILGMM-Wce31LH-ySo0q-31">
          <mxGeometry y="90" width="180" height="30" as="geometry" />
        </mxCell>
        <mxCell id="fILGMM-Wce31LH-ySo0q-39" value="" style="shape=partialRectangle;connectable=0;fillColor=none;top=0;left=0;bottom=0;right=0;editable=1;overflow=hidden;whiteSpace=wrap;html=1;" vertex="1" parent="fILGMM-Wce31LH-ySo0q-38">
          <mxGeometry width="30" height="30" as="geometry">
            <mxRectangle width="30" height="30" as="alternateBounds" />
          </mxGeometry>
        </mxCell>
        <mxCell id="fILGMM-Wce31LH-ySo0q-40" value="password" style="shape=partialRectangle;connectable=0;fillColor=none;top=0;left=0;bottom=0;right=0;align=left;spacingLeft=6;overflow=hidden;whiteSpace=wrap;html=1;" vertex="1" parent="fILGMM-Wce31LH-ySo0q-38">
          <mxGeometry x="30" width="150" height="30" as="geometry">
            <mxRectangle width="150" height="30" as="alternateBounds" />
          </mxGeometry>
        </mxCell>
        <mxCell id="fILGMM-Wce31LH-ySo0q-41" value="" style="shape=tableRow;horizontal=0;startSize=0;swimlaneHead=0;swimlaneBody=0;fillColor=none;collapsible=0;dropTarget=0;points=[[0,0.5],[1,0.5]];portConstraint=eastwest;top=0;left=0;right=0;bottom=0;" vertex="1" parent="fILGMM-Wce31LH-ySo0q-31">
          <mxGeometry y="120" width="180" height="30" as="geometry" />
        </mxCell>
        <mxCell id="fILGMM-Wce31LH-ySo0q-42" value="" style="shape=partialRectangle;connectable=0;fillColor=none;top=0;left=0;bottom=0;right=0;editable=1;overflow=hidden;whiteSpace=wrap;html=1;" vertex="1" parent="fILGMM-Wce31LH-ySo0q-41">
          <mxGeometry width="30" height="30" as="geometry">
            <mxRectangle width="30" height="30" as="alternateBounds" />
          </mxGeometry>
        </mxCell>
        <mxCell id="fILGMM-Wce31LH-ySo0q-43" value="role (admin, pengajar, murid)" style="shape=partialRectangle;connectable=0;fillColor=none;top=0;left=0;bottom=0;right=0;align=left;spacingLeft=6;overflow=hidden;whiteSpace=wrap;html=1;" vertex="1" parent="fILGMM-Wce31LH-ySo0q-41">
          <mxGeometry x="30" width="150" height="30" as="geometry">
            <mxRectangle width="150" height="30" as="alternateBounds" />
          </mxGeometry>
        </mxCell>
        <mxCell id="fILGMM-Wce31LH-ySo0q-44" value="profile_info" style="shape=partialRectangle;connectable=0;fillColor=none;top=0;left=0;bottom=0;right=0;align=left;spacingLeft=6;overflow=hidden;whiteSpace=wrap;html=1;" vertex="1" parent="1">
          <mxGeometry x="132" y="411" width="150" height="30" as="geometry">
            <mxRectangle width="150" height="30" as="alternateBounds" />
          </mxGeometry>
        </mxCell>
        <mxCell id="fILGMM-Wce31LH-ySo0q-46" value="" style="endArrow=none;html=1;rounded=0;" edge="1" parent="1">
          <mxGeometry relative="1" as="geometry">
            <mxPoint x="130" y="408" as="sourcePoint" />
            <mxPoint x="130" y="470" as="targetPoint" />
          </mxGeometry>
        </mxCell>
        <mxCell id="fILGMM-Wce31LH-ySo0q-47" value="&lt;div&gt;Collection kelas&lt;/div&gt;" style="shape=table;startSize=30;container=1;collapsible=1;childLayout=tableLayout;fixedRows=1;rowLines=0;fontStyle=1;align=center;resizeLast=1;html=1;" vertex="1" parent="1">
          <mxGeometry x="380" y="260" width="180" height="210" as="geometry">
            <mxRectangle x="100" y="260" width="70" height="30" as="alternateBounds" />
          </mxGeometry>
        </mxCell>
        <mxCell id="fILGMM-Wce31LH-ySo0q-48" value="" style="shape=tableRow;horizontal=0;startSize=0;swimlaneHead=0;swimlaneBody=0;fillColor=none;collapsible=0;dropTarget=0;points=[[0,0.5],[1,0.5]];portConstraint=eastwest;top=0;left=0;right=0;bottom=1;" vertex="1" parent="fILGMM-Wce31LH-ySo0q-47">
          <mxGeometry y="30" width="180" height="30" as="geometry" />
        </mxCell>
        <mxCell id="fILGMM-Wce31LH-ySo0q-49" value="PK" style="shape=partialRectangle;connectable=0;fillColor=none;top=0;left=0;bottom=0;right=0;fontStyle=1;overflow=hidden;whiteSpace=wrap;html=1;" vertex="1" parent="fILGMM-Wce31LH-ySo0q-48">
          <mxGeometry width="30" height="30" as="geometry">
            <mxRectangle width="30" height="30" as="alternateBounds" />
          </mxGeometry>
        </mxCell>
        <mxCell id="fILGMM-Wce31LH-ySo0q-50" value="_id" style="shape=partialRectangle;connectable=0;fillColor=none;top=0;left=0;bottom=0;right=0;align=left;spacingLeft=6;fontStyle=5;overflow=hidden;whiteSpace=wrap;html=1;" vertex="1" parent="fILGMM-Wce31LH-ySo0q-48">
          <mxGeometry x="30" width="150" height="30" as="geometry">
            <mxRectangle width="150" height="30" as="alternateBounds" />
          </mxGeometry>
        </mxCell>
        <mxCell id="fILGMM-Wce31LH-ySo0q-51" value="" style="shape=tableRow;horizontal=0;startSize=0;swimlaneHead=0;swimlaneBody=0;fillColor=none;collapsible=0;dropTarget=0;points=[[0,0.5],[1,0.5]];portConstraint=eastwest;top=0;left=0;right=0;bottom=0;" vertex="1" parent="fILGMM-Wce31LH-ySo0q-47">
          <mxGeometry y="60" width="180" height="30" as="geometry" />
        </mxCell>
        <mxCell id="fILGMM-Wce31LH-ySo0q-52" value="" style="shape=partialRectangle;connectable=0;fillColor=none;top=0;left=0;bottom=0;right=0;editable=1;overflow=hidden;whiteSpace=wrap;html=1;" vertex="1" parent="fILGMM-Wce31LH-ySo0q-51">
          <mxGeometry width="30" height="30" as="geometry">
            <mxRectangle width="30" height="30" as="alternateBounds" />
          </mxGeometry>
        </mxCell>
        <mxCell id="fILGMM-Wce31LH-ySo0q-53" value="name" style="shape=partialRectangle;connectable=0;fillColor=none;top=0;left=0;bottom=0;right=0;align=left;spacingLeft=6;overflow=hidden;whiteSpace=wrap;html=1;" vertex="1" parent="fILGMM-Wce31LH-ySo0q-51">
          <mxGeometry x="30" width="150" height="30" as="geometry">
            <mxRectangle width="150" height="30" as="alternateBounds" />
          </mxGeometry>
        </mxCell>
        <mxCell id="fILGMM-Wce31LH-ySo0q-54" value="" style="shape=tableRow;horizontal=0;startSize=0;swimlaneHead=0;swimlaneBody=0;fillColor=none;collapsible=0;dropTarget=0;points=[[0,0.5],[1,0.5]];portConstraint=eastwest;top=0;left=0;right=0;bottom=0;" vertex="1" parent="fILGMM-Wce31LH-ySo0q-47">
          <mxGeometry y="90" width="180" height="30" as="geometry" />
        </mxCell>
        <mxCell id="fILGMM-Wce31LH-ySo0q-55" value="" style="shape=partialRectangle;connectable=0;fillColor=none;top=0;left=0;bottom=0;right=0;editable=1;overflow=hidden;whiteSpace=wrap;html=1;" vertex="1" parent="fILGMM-Wce31LH-ySo0q-54">
          <mxGeometry width="30" height="30" as="geometry">
            <mxRectangle width="30" height="30" as="alternateBounds" />
          </mxGeometry>
        </mxCell>
        <mxCell id="fILGMM-Wce31LH-ySo0q-56" value="description" style="shape=partialRectangle;connectable=0;fillColor=none;top=0;left=0;bottom=0;right=0;align=left;spacingLeft=6;overflow=hidden;whiteSpace=wrap;html=1;" vertex="1" parent="fILGMM-Wce31LH-ySo0q-54">
          <mxGeometry x="30" width="150" height="30" as="geometry">
            <mxRectangle width="150" height="30" as="alternateBounds" />
          </mxGeometry>
        </mxCell>
        <mxCell id="fILGMM-Wce31LH-ySo0q-57" value="" style="shape=tableRow;horizontal=0;startSize=0;swimlaneHead=0;swimlaneBody=0;fillColor=none;collapsible=0;dropTarget=0;points=[[0,0.5],[1,0.5]];portConstraint=eastwest;top=0;left=0;right=0;bottom=0;" vertex="1" parent="fILGMM-Wce31LH-ySo0q-47">
          <mxGeometry y="120" width="180" height="30" as="geometry" />
        </mxCell>
        <mxCell id="fILGMM-Wce31LH-ySo0q-58" value="" style="shape=partialRectangle;connectable=0;fillColor=none;top=0;left=0;bottom=0;right=0;editable=1;overflow=hidden;whiteSpace=wrap;html=1;" vertex="1" parent="fILGMM-Wce31LH-ySo0q-57">
          <mxGeometry width="30" height="30" as="geometry">
            <mxRectangle width="30" height="30" as="alternateBounds" />
          </mxGeometry>
        </mxCell>
        <mxCell id="fILGMM-Wce31LH-ySo0q-59" value="teacher_id" style="shape=partialRectangle;connectable=0;fillColor=none;top=0;left=0;bottom=0;right=0;align=left;spacingLeft=6;overflow=hidden;whiteSpace=wrap;html=1;" vertex="1" parent="fILGMM-Wce31LH-ySo0q-57">
          <mxGeometry x="30" width="150" height="30" as="geometry">
            <mxRectangle width="150" height="30" as="alternateBounds" />
          </mxGeometry>
        </mxCell>
        <mxCell id="fILGMM-Wce31LH-ySo0q-60" value="students" style="shape=partialRectangle;connectable=0;fillColor=none;top=0;left=0;bottom=0;right=0;align=left;spacingLeft=6;overflow=hidden;whiteSpace=wrap;html=1;" vertex="1" parent="1">
          <mxGeometry x="412" y="411" width="150" height="30" as="geometry">
            <mxRectangle width="150" height="30" as="alternateBounds" />
          </mxGeometry>
        </mxCell>
        <mxCell id="fILGMM-Wce31LH-ySo0q-61" value="" style="endArrow=none;html=1;rounded=0;" edge="1" parent="1">
          <mxGeometry relative="1" as="geometry">
            <mxPoint x="410" y="408" as="sourcePoint" />
            <mxPoint x="410" y="470" as="targetPoint" />
          </mxGeometry>
        </mxCell>
        <mxCell id="fILGMM-Wce31LH-ySo0q-62" value="&lt;div&gt;Collection materi&lt;br&gt;&lt;/div&gt;" style="shape=table;startSize=30;container=1;collapsible=1;childLayout=tableLayout;fixedRows=1;rowLines=0;fontStyle=1;align=center;resizeLast=1;html=1;" vertex="1" parent="1">
          <mxGeometry x="98" y="570" width="180" height="210" as="geometry">
            <mxRectangle x="100" y="260" width="70" height="30" as="alternateBounds" />
          </mxGeometry>
        </mxCell>
        <mxCell id="fILGMM-Wce31LH-ySo0q-63" value="" style="shape=tableRow;horizontal=0;startSize=0;swimlaneHead=0;swimlaneBody=0;fillColor=none;collapsible=0;dropTarget=0;points=[[0,0.5],[1,0.5]];portConstraint=eastwest;top=0;left=0;right=0;bottom=1;" vertex="1" parent="fILGMM-Wce31LH-ySo0q-62">
          <mxGeometry y="30" width="180" height="30" as="geometry" />
        </mxCell>
        <mxCell id="fILGMM-Wce31LH-ySo0q-64" value="PK" style="shape=partialRectangle;connectable=0;fillColor=none;top=0;left=0;bottom=0;right=0;fontStyle=1;overflow=hidden;whiteSpace=wrap;html=1;" vertex="1" parent="fILGMM-Wce31LH-ySo0q-63">
          <mxGeometry width="30" height="30" as="geometry">
            <mxRectangle width="30" height="30" as="alternateBounds" />
          </mxGeometry>
        </mxCell>
        <mxCell id="fILGMM-Wce31LH-ySo0q-65" value="_id" style="shape=partialRectangle;connectable=0;fillColor=none;top=0;left=0;bottom=0;right=0;align=left;spacingLeft=6;fontStyle=5;overflow=hidden;whiteSpace=wrap;html=1;" vertex="1" parent="fILGMM-Wce31LH-ySo0q-63">
          <mxGeometry x="30" width="150" height="30" as="geometry">
            <mxRectangle width="150" height="30" as="alternateBounds" />
          </mxGeometry>
        </mxCell>
        <mxCell id="fILGMM-Wce31LH-ySo0q-66" value="" style="shape=tableRow;horizontal=0;startSize=0;swimlaneHead=0;swimlaneBody=0;fillColor=none;collapsible=0;dropTarget=0;points=[[0,0.5],[1,0.5]];portConstraint=eastwest;top=0;left=0;right=0;bottom=0;" vertex="1" parent="fILGMM-Wce31LH-ySo0q-62">
          <mxGeometry y="60" width="180" height="30" as="geometry" />
        </mxCell>
        <mxCell id="fILGMM-Wce31LH-ySo0q-67" value="" style="shape=partialRectangle;connectable=0;fillColor=none;top=0;left=0;bottom=0;right=0;editable=1;overflow=hidden;whiteSpace=wrap;html=1;" vertex="1" parent="fILGMM-Wce31LH-ySo0q-66">
          <mxGeometry width="30" height="30" as="geometry">
            <mxRectangle width="30" height="30" as="alternateBounds" />
          </mxGeometry>
        </mxCell>
        <mxCell id="fILGMM-Wce31LH-ySo0q-68" value="name" style="shape=partialRectangle;connectable=0;fillColor=none;top=0;left=0;bottom=0;right=0;align=left;spacingLeft=6;overflow=hidden;whiteSpace=wrap;html=1;" vertex="1" parent="fILGMM-Wce31LH-ySo0q-66">
          <mxGeometry x="30" width="150" height="30" as="geometry">
            <mxRectangle width="150" height="30" as="alternateBounds" />
          </mxGeometry>
        </mxCell>
        <mxCell id="fILGMM-Wce31LH-ySo0q-69" value="" style="shape=tableRow;horizontal=0;startSize=0;swimlaneHead=0;swimlaneBody=0;fillColor=none;collapsible=0;dropTarget=0;points=[[0,0.5],[1,0.5]];portConstraint=eastwest;top=0;left=0;right=0;bottom=0;" vertex="1" parent="fILGMM-Wce31LH-ySo0q-62">
          <mxGeometry y="90" width="180" height="30" as="geometry" />
        </mxCell>
        <mxCell id="fILGMM-Wce31LH-ySo0q-70" value="" style="shape=partialRectangle;connectable=0;fillColor=none;top=0;left=0;bottom=0;right=0;editable=1;overflow=hidden;whiteSpace=wrap;html=1;" vertex="1" parent="fILGMM-Wce31LH-ySo0q-69">
          <mxGeometry width="30" height="30" as="geometry">
            <mxRectangle width="30" height="30" as="alternateBounds" />
          </mxGeometry>
        </mxCell>
        <mxCell id="fILGMM-Wce31LH-ySo0q-71" value="description" style="shape=partialRectangle;connectable=0;fillColor=none;top=0;left=0;bottom=0;right=0;align=left;spacingLeft=6;overflow=hidden;whiteSpace=wrap;html=1;" vertex="1" parent="fILGMM-Wce31LH-ySo0q-69">
          <mxGeometry x="30" width="150" height="30" as="geometry">
            <mxRectangle width="150" height="30" as="alternateBounds" />
          </mxGeometry>
        </mxCell>
        <mxCell id="fILGMM-Wce31LH-ySo0q-72" value="" style="shape=tableRow;horizontal=0;startSize=0;swimlaneHead=0;swimlaneBody=0;fillColor=none;collapsible=0;dropTarget=0;points=[[0,0.5],[1,0.5]];portConstraint=eastwest;top=0;left=0;right=0;bottom=0;" vertex="1" parent="fILGMM-Wce31LH-ySo0q-62">
          <mxGeometry y="120" width="180" height="30" as="geometry" />
        </mxCell>
        <mxCell id="fILGMM-Wce31LH-ySo0q-73" value="" style="shape=partialRectangle;connectable=0;fillColor=none;top=0;left=0;bottom=0;right=0;editable=1;overflow=hidden;whiteSpace=wrap;html=1;" vertex="1" parent="fILGMM-Wce31LH-ySo0q-72">
          <mxGeometry width="30" height="30" as="geometry">
            <mxRectangle width="30" height="30" as="alternateBounds" />
          </mxGeometry>
        </mxCell>
        <mxCell id="fILGMM-Wce31LH-ySo0q-74" value="teacher_id" style="shape=partialRectangle;connectable=0;fillColor=none;top=0;left=0;bottom=0;right=0;align=left;spacingLeft=6;overflow=hidden;whiteSpace=wrap;html=1;" vertex="1" parent="fILGMM-Wce31LH-ySo0q-72">
          <mxGeometry x="30" width="150" height="30" as="geometry">
            <mxRectangle width="150" height="30" as="alternateBounds" />
          </mxGeometry>
        </mxCell>
        <mxCell id="fILGMM-Wce31LH-ySo0q-75" value="students" style="shape=partialRectangle;connectable=0;fillColor=none;top=0;left=0;bottom=0;right=0;align=left;spacingLeft=6;overflow=hidden;whiteSpace=wrap;html=1;" vertex="1" parent="1">
          <mxGeometry x="130" y="721" width="150" height="30" as="geometry">
            <mxRectangle width="150" height="30" as="alternateBounds" />
          </mxGeometry>
        </mxCell>
        <mxCell id="fILGMM-Wce31LH-ySo0q-76" value="" style="endArrow=none;html=1;rounded=0;" edge="1" parent="1">
          <mxGeometry relative="1" as="geometry">
            <mxPoint x="128" y="718" as="sourcePoint" />
            <mxPoint x="128" y="780" as="targetPoint" />
          </mxGeometry>
        </mxCell>
      </root>
    </mxGraphModel>
  </diagram>
</mxfile>
